<?xml version="1.0" encoding="UTF-8"?>
<!DOCTYPE svg PUBLIC "-//W3C//DTD SVG 1.1//EN"
    "http://www.w3.org/Graphics/SVG/1.1/DTD/svg11.dtd">
<svg xmlns="http://www.w3.org/2000/svg" xmlns:xlink="http://www.w3.org/1999/xlink" version="1.1" width="256.0" height="256.0" font-size="1" viewBox="0 0 256 256"><g><g transform="matrix(16.0,0.0,0.0,16.0,128.0,26.38635262262588)"><g stroke="rgb(0,0,0)" stroke-opacity="1.0" fill="rgb(0,0,0)" fill-opacity="1.0" stroke-width="1.0e-2" stroke-linecap="butt" stroke-linejoin="miter" font-size="1.0em" stroke-miterlimit="10.0"><path d="M 8.0,13.279056191361393 l -0.5000000000000002,-0.8660254037844385 l -0.4999999999999999,0.8660254037844386 l 1.0,-1.1102230246251565e-16 Z" /></g></g><g transform="matrix(16.0,0.0,0.0,16.0,128.0,26.38635262262588)"><g stroke="rgb(0,0,0)" stroke-opacity="1.0" fill="rgb(0,0,0)" fill-opacity="1.0" stroke-width="1.0e-2" stroke-linecap="butt" stroke-linejoin="miter" font-size="1.0em" stroke-miterlimit="10.0"><path d="M 7.0,13.279056191361393 l -0.5000000000000002,-0.8660254037844385 l -0.4999999999999999,0.8660254037844386 l 1.0,-1.1102230246251565e-16 Z" /></g></g><g transform="matrix(16.0,0.0,0.0,16.0,128.0,26.38635262262588)"><g stroke="rgb(0,0,0)" stroke-opacity="1.0" fill="rgb(0,0,0)" fill-opacity="1.0" stroke-width="1.0e-2" stroke-linecap="butt" stroke-linejoin="miter" font-size="1.0em" stroke-miterlimit="10.0"><path d="M 7.5,12.413030787576954 l -0.5000000000000002,-0.8660254037844385 l -0.4999999999999999,0.8660254037844386 l 1.0,-1.1102230246251565e-16 Z" /></g></g><g transform="matrix(16.0,0.0,0.0,16.0,128.0,26.38635262262588)"><g stroke="rgb(0,0,0)" stroke-opacity="1.0" fill="rgb(0,0,0)" fill-opacity="1.0" stroke-width="1.0e-2" stroke-linecap="butt" stroke-linejoin="miter" font-size="1.0em" stroke-miterlimit="10.0"><path d="M 6.0,13.279056191361393 l -0.5000000000000002,-0.8660254037844385 l -0.4999999999999999,0.8660254037844386 l 1.0,-1.1102230246251565e-16 Z" /></g></g><g transform="matrix(16.0,0.0,0.0,16.0,128.0,26.38635262262588)"><g stroke="rgb(0,0,0)" stroke-opacity="1.0" fill="rgb(0,0,0)" fill-opacity="1.0" stroke-width="1.0e-2" stroke-linecap="butt" stroke-linejoin="miter" font-size="1.0em" stroke-miterlimit="10.0"><path d="M 5.0,13.279056191361393 l -0.5000000000000002,-0.8660254037844385 l -0.4999999999999999,0.8660254037844386 l 1.0,-1.1102230246251565e-16 Z" /></g></g><g transform="matrix(16.0,0.0,0.0,16.0,128.0,26.38635262262588)"><g stroke="rgb(0,0,0)" stroke-opacity="1.0" fill="rgb(0,0,0)" fill-opacity="1.0" stroke-width="1.0e-2" stroke-linecap="butt" stroke-linejoin="miter" font-size="1.0em" stroke-miterlimit="10.0"><path d="M 5.5,12.413030787576954 l -0.5000000000000002,-0.8660254037844385 l -0.4999999999999999,0.8660254037844386 l 1.0,-1.1102230246251565e-16 Z" /></g></g><g transform="matrix(16.0,0.0,0.0,16.0,128.0,26.38635262262588)"><g stroke="rgb(0,0,0)" stroke-opacity="1.0" fill="rgb(0,0,0)" fill-opacity="1.0" stroke-width="1.0e-2" stroke-linecap="butt" stroke-linejoin="miter" font-size="1.0em" stroke-miterlimit="10.0"><path d="M 7.0,11.547005383792516 l -0.5000000000000002,-0.8660254037844385 l -0.4999999999999999,0.8660254037844386 l 1.0,-1.1102230246251565e-16 Z" /></g></g><g transform="matrix(16.0,0.0,0.0,16.0,128.0,26.38635262262588)"><g stroke="rgb(0,0,0)" stroke-opacity="1.0" fill="rgb(0,0,0)" fill-opacity="1.0" stroke-width="1.0e-2" stroke-linecap="butt" stroke-linejoin="miter" font-size="1.0em" stroke-miterlimit="10.0"><path d="M 6.0,11.547005383792516 l -0.5000000000000002,-0.8660254037844385 l -0.4999999999999999,0.8660254037844386 l 1.0,-1.1102230246251565e-16 Z" /></g></g><g transform="matrix(16.0,0.0,0.0,16.0,128.0,26.38635262262588)"><g stroke="rgb(0,0,0)" stroke-opacity="1.0" fill="rgb(0,0,0)" fill-opacity="1.0" stroke-width="1.0e-2" stroke-linecap="butt" stroke-linejoin="miter" font-size="1.0em" stroke-miterlimit="10.0"><path d="M 6.5,10.680979980008077 l -0.5000000000000002,-0.8660254037844385 l -0.4999999999999999,0.8660254037844386 l 1.0,-1.1102230246251565e-16 Z" /></g></g><g transform="matrix(16.0,0.0,0.0,16.0,128.0,26.38635262262588)"><g stroke="rgb(0,0,0)" stroke-opacity="1.0" fill="rgb(0,0,0)" fill-opacity="1.0" stroke-width="1.0e-2" stroke-linecap="butt" stroke-linejoin="miter" font-size="1.0em" stroke-miterlimit="10.0"><path d="M 4.0,13.279056191361393 l -0.5000000000000002,-0.8660254037844385 l -0.4999999999999999,0.8660254037844386 l 1.0,-1.1102230246251565e-16 Z" /></g></g><g transform="matrix(16.0,0.0,0.0,16.0,128.0,26.38635262262588)"><g stroke="rgb(0,0,0)" stroke-opacity="1.0" fill="rgb(0,0,0)" fill-opacity="1.0" stroke-width="1.0e-2" stroke-linecap="butt" stroke-linejoin="miter" font-size="1.0em" stroke-miterlimit="10.0"><path d="M 3.0,13.279056191361393 l -0.5000000000000002,-0.8660254037844385 l -0.4999999999999999,0.8660254037844386 l 1.0,-1.1102230246251565e-16 Z" /></g></g><g transform="matrix(16.0,0.0,0.0,16.0,128.0,26.38635262262588)"><g stroke="rgb(0,0,0)" stroke-opacity="1.0" fill="rgb(0,0,0)" fill-opacity="1.0" stroke-width="1.0e-2" stroke-linecap="butt" stroke-linejoin="miter" font-size="1.0em" stroke-miterlimit="10.0"><path d="M 3.5,12.413030787576954 l -0.5000000000000002,-0.8660254037844385 l -0.4999999999999999,0.8660254037844386 l 1.0,-1.1102230246251565e-16 Z" /></g></g><g transform="matrix(16.0,0.0,0.0,16.0,128.0,26.38635262262588)"><g stroke="rgb(0,0,0)" stroke-opacity="1.0" fill="rgb(0,0,0)" fill-opacity="1.0" stroke-width="1.0e-2" stroke-linecap="butt" stroke-linejoin="miter" font-size="1.0em" stroke-miterlimit="10.0"><path d="M 2.0,13.279056191361393 l -0.5000000000000002,-0.8660254037844385 l -0.4999999999999999,0.8660254037844386 l 1.0,-1.1102230246251565e-16 Z" /></g></g><g transform="matrix(16.0,0.0,0.0,16.0,128.0,26.38635262262588)"><g stroke="rgb(0,0,0)" stroke-opacity="1.0" fill="rgb(0,0,0)" fill-opacity="1.0" stroke-width="1.0e-2" stroke-linecap="butt" stroke-linejoin="miter" font-size="1.0em" stroke-miterlimit="10.0"><path d="M 1.0,13.279056191361393 l -0.5000000000000002,-0.8660254037844385 l -0.4999999999999999,0.8660254037844386 l 1.0,-1.1102230246251565e-16 Z" /></g></g><g transform="matrix(16.0,0.0,0.0,16.0,128.0,26.38635262262588)"><g stroke="rgb(0,0,0)" stroke-opacity="1.0" fill="rgb(0,0,0)" fill-opacity="1.0" stroke-width="1.0e-2" stroke-linecap="butt" stroke-linejoin="miter" font-size="1.0em" stroke-miterlimit="10.0"><path d="M 1.5,12.413030787576954 l -0.5000000000000002,-0.8660254037844385 l -0.4999999999999999,0.8660254037844386 l 1.0,-1.1102230246251565e-16 Z" /></g></g><g transform="matrix(16.0,0.0,0.0,16.0,128.0,26.38635262262588)"><g stroke="rgb(0,0,0)" stroke-opacity="1.0" fill="rgb(0,0,0)" fill-opacity="1.0" stroke-width="1.0e-2" stroke-linecap="butt" stroke-linejoin="miter" font-size="1.0em" stroke-miterlimit="10.0"><path d="M 3.0,11.547005383792516 l -0.5000000000000002,-0.8660254037844385 l -0.4999999999999999,0.8660254037844386 l 1.0,-1.1102230246251565e-16 Z" /></g></g><g transform="matrix(16.0,0.0,0.0,16.0,128.0,26.38635262262588)"><g stroke="rgb(0,0,0)" stroke-opacity="1.0" fill="rgb(0,0,0)" fill-opacity="1.0" stroke-width="1.0e-2" stroke-linecap="butt" stroke-linejoin="miter" font-size="1.0em" stroke-miterlimit="10.0"><path d="M 2.0,11.547005383792516 l -0.5000000000000002,-0.8660254037844385 l -0.4999999999999999,0.8660254037844386 l 1.0,-1.1102230246251565e-16 Z" /></g></g><g transform="matrix(16.0,0.0,0.0,16.0,128.0,26.38635262262588)"><g stroke="rgb(0,0,0)" stroke-opacity="1.0" fill="rgb(0,0,0)" fill-opacity="1.0" stroke-width="1.0e-2" stroke-linecap="butt" stroke-linejoin="miter" font-size="1.0em" stroke-miterlimit="10.0"><path d="M 2.5,10.680979980008077 l -0.5000000000000002,-0.8660254037844385 l -0.4999999999999999,0.8660254037844386 l 1.0,-1.1102230246251565e-16 Z" /></g></g><g transform="matrix(16.0,0.0,0.0,16.0,128.0,26.38635262262588)"><g stroke="rgb(0,0,0)" stroke-opacity="1.0" fill="rgb(0,0,0)" fill-opacity="1.0" stroke-width="1.0e-2" stroke-linecap="butt" stroke-linejoin="miter" font-size="1.0em" stroke-miterlimit="10.0"><path d="M 6.0,9.814954576223638 l -0.5000000000000002,-0.8660254037844385 l -0.4999999999999999,0.8660254037844386 l 1.0,-1.1102230246251565e-16 Z" /></g></g><g transform="matrix(16.0,0.0,0.0,16.0,128.0,26.38635262262588)"><g stroke="rgb(0,0,0)" stroke-opacity="1.0" fill="rgb(0,0,0)" fill-opacity="1.0" stroke-width="1.0e-2" stroke-linecap="butt" stroke-linejoin="miter" font-size="1.0em" stroke-miterlimit="10.0"><path d="M 5.0,9.814954576223638 l -0.5000000000000002,-0.8660254037844385 l -0.4999999999999999,0.8660254037844386 l 1.0,-1.1102230246251565e-16 Z" /></g></g><g transform="matrix(16.0,0.0,0.0,16.0,128.0,26.38635262262588)"><g stroke="rgb(0,0,0)" stroke-opacity="1.0" fill="rgb(0,0,0)" fill-opacity="1.0" stroke-width="1.0e-2" stroke-linecap="butt" stroke-linejoin="miter" font-size="1.0em" stroke-miterlimit="10.0"><path d="M 5.5,8.948929172439199 l -0.5000000000000002,-0.8660254037844385 l -0.4999999999999999,0.8660254037844386 l 1.0,-1.1102230246251565e-16 Z" /></g></g><g transform="matrix(16.0,0.0,0.0,16.0,128.0,26.38635262262588)"><g stroke="rgb(0,0,0)" stroke-opacity="1.0" fill="rgb(0,0,0)" fill-opacity="1.0" stroke-width="1.0e-2" stroke-linecap="butt" stroke-linejoin="miter" font-size="1.0em" stroke-miterlimit="10.0"><path d="M 4.0,9.814954576223638 l -0.5000000000000002,-0.8660254037844385 l -0.4999999999999999,0.8660254037844386 l 1.0,-1.1102230246251565e-16 Z" /></g></g><g transform="matrix(16.0,0.0,0.0,16.0,128.0,26.38635262262588)"><g stroke="rgb(0,0,0)" stroke-opacity="1.0" fill="rgb(0,0,0)" fill-opacity="1.0" stroke-width="1.0e-2" stroke-linecap="butt" stroke-linejoin="miter" font-size="1.0em" stroke-miterlimit="10.0"><path d="M 3.0,9.814954576223638 l -0.5000000000000002,-0.8660254037844385 l -0.4999999999999999,0.8660254037844386 l 1.0,-1.1102230246251565e-16 Z" /></g></g><g transform="matrix(16.0,0.0,0.0,16.0,128.0,26.38635262262588)"><g stroke="rgb(0,0,0)" stroke-opacity="1.0" fill="rgb(0,0,0)" fill-opacity="1.0" stroke-width="1.0e-2" stroke-linecap="butt" stroke-linejoin="miter" font-size="1.0em" stroke-miterlimit="10.0"><path d="M 3.5,8.948929172439199 l -0.5000000000000002,-0.8660254037844385 l -0.4999999999999999,0.8660254037844386 l 1.0,-1.1102230246251565e-16 Z" /></g></g><g transform="matrix(16.0,0.0,0.0,16.0,128.0,26.38635262262588)"><g stroke="rgb(0,0,0)" stroke-opacity="1.0" fill="rgb(0,0,0)" fill-opacity="1.0" stroke-width="1.0e-2" stroke-linecap="butt" stroke-linejoin="miter" font-size="1.0em" stroke-miterlimit="10.0"><path d="M 5.0,8.08290376865476 l -0.5000000000000002,-0.8660254037844385 l -0.4999999999999999,0.8660254037844386 l 1.0,-1.1102230246251565e-16 Z" /></g></g><g transform="matrix(16.0,0.0,0.0,16.0,128.0,26.38635262262588)"><g stroke="rgb(0,0,0)" stroke-opacity="1.0" fill="rgb(0,0,0)" fill-opacity="1.0" stroke-width="1.0e-2" stroke-linecap="butt" stroke-linejoin="miter" font-size="1.0em" stroke-miterlimit="10.0"><path d="M 4.0,8.08290376865476 l -0.5000000000000002,-0.8660254037844385 l -0.4999999999999999,0.8660254037844386 l 1.0,-1.1102230246251565e-16 Z" /></g></g><g transform="matrix(16.0,0.0,0.0,16.0,128.0,26.38635262262588)"><g stroke="rgb(0,0,0)" stroke-opacity="1.0" fill="rgb(0,0,0)" fill-opacity="1.0" stroke-width="1.0e-2" stroke-linecap="butt" stroke-linejoin="miter" font-size="1.0em" stroke-miterlimit="10.0"><path d="M 4.5,7.216878364870322 l -0.5000000000000002,-0.8660254037844385 l -0.4999999999999999,0.8660254037844386 l 1.0,-1.1102230246251565e-16 Z" /></g></g><g transform="matrix(16.0,0.0,0.0,16.0,128.0,26.38635262262588)"><g stroke="rgb(0,0,0)" stroke-opacity="1.0" fill="rgb(0,0,0)" fill-opacity="1.0" stroke-width="1.0e-2" stroke-linecap="butt" stroke-linejoin="miter" font-size="1.0em" stroke-miterlimit="10.0"><path d="M 0.0,13.279056191361393 l -0.5000000000000002,-0.8660254037844385 l -0.4999999999999999,0.8660254037844386 l 1.0,-1.1102230246251565e-16 Z" /></g></g><g transform="matrix(16.0,0.0,0.0,16.0,128.0,26.38635262262588)"><g stroke="rgb(0,0,0)" stroke-opacity="1.0" fill="rgb(0,0,0)" fill-opacity="1.0" stroke-width="1.0e-2" stroke-linecap="butt" stroke-linejoin="miter" font-size="1.0em" stroke-miterlimit="10.0"><path d="M -1.0,13.279056191361393 l -0.5000000000000002,-0.8660254037844385 l -0.4999999999999999,0.8660254037844386 l 1.0,-1.1102230246251565e-16 Z" /></g></g><g transform="matrix(16.0,0.0,0.0,16.0,128.0,26.38635262262588)"><g stroke="rgb(0,0,0)" stroke-opacity="1.0" fill="rgb(0,0,0)" fill-opacity="1.0" stroke-width="1.0e-2" stroke-linecap="butt" stroke-linejoin="miter" font-size="1.0em" stroke-miterlimit="10.0"><path d="M -0.5,12.413030787576954 l -0.5000000000000002,-0.8660254037844385 l -0.4999999999999999,0.8660254037844386 l 1.0,-1.1102230246251565e-16 Z" /></g></g><g transform="matrix(16.0,0.0,0.0,16.0,128.0,26.38635262262588)"><g stroke="rgb(0,0,0)" stroke-opacity="1.0" fill="rgb(0,0,0)" fill-opacity="1.0" stroke-width="1.0e-2" stroke-linecap="butt" stroke-linejoin="miter" font-size="1.0em" stroke-miterlimit="10.0"><path d="M -2.0,13.279056191361393 l -0.5000000000000002,-0.8660254037844385 l -0.4999999999999999,0.8660254037844386 l 1.0,-1.1102230246251565e-16 Z" /></g></g><g transform="matrix(16.0,0.0,0.0,16.0,128.0,26.38635262262588)"><g stroke="rgb(0,0,0)" stroke-opacity="1.0" fill="rgb(0,0,0)" fill-opacity="1.0" stroke-width="1.0e-2" stroke-linecap="butt" stroke-linejoin="miter" font-size="1.0em" stroke-miterlimit="10.0"><path d="M -3.0,13.279056191361393 l -0.5000000000000002,-0.8660254037844385 l -0.4999999999999999,0.8660254037844386 l 1.0,-1.1102230246251565e-16 Z" /></g></g><g transform="matrix(16.0,0.0,0.0,16.0,128.0,26.38635262262588)"><g stroke="rgb(0,0,0)" stroke-opacity="1.0" fill="rgb(0,0,0)" fill-opacity="1.0" stroke-width="1.0e-2" stroke-linecap="butt" stroke-linejoin="miter" font-size="1.0em" stroke-miterlimit="10.0"><path d="M -2.5,12.413030787576954 l -0.5000000000000002,-0.8660254037844385 l -0.4999999999999999,0.8660254037844386 l 1.0,-1.1102230246251565e-16 Z" /></g></g><g transform="matrix(16.0,0.0,0.0,16.0,128.0,26.38635262262588)"><g stroke="rgb(0,0,0)" stroke-opacity="1.0" fill="rgb(0,0,0)" fill-opacity="1.0" stroke-width="1.0e-2" stroke-linecap="butt" stroke-linejoin="miter" font-size="1.0em" stroke-miterlimit="10.0"><path d="M -1.0,11.547005383792516 l -0.5000000000000002,-0.8660254037844385 l -0.4999999999999999,0.8660254037844386 l 1.0,-1.1102230246251565e-16 Z" /></g></g><g transform="matrix(16.0,0.0,0.0,16.0,128.0,26.38635262262588)"><g stroke="rgb(0,0,0)" stroke-opacity="1.0" fill="rgb(0,0,0)" fill-opacity="1.0" stroke-width="1.0e-2" stroke-linecap="butt" stroke-linejoin="miter" font-size="1.0em" stroke-miterlimit="10.0"><path d="M -2.0,11.547005383792516 l -0.5000000000000002,-0.8660254037844385 l -0.4999999999999999,0.8660254037844386 l 1.0,-1.1102230246251565e-16 Z" /></g></g><g transform="matrix(16.0,0.0,0.0,16.0,128.0,26.38635262262588)"><g stroke="rgb(0,0,0)" stroke-opacity="1.0" fill="rgb(0,0,0)" fill-opacity="1.0" stroke-width="1.0e-2" stroke-linecap="butt" stroke-linejoin="miter" font-size="1.0em" stroke-miterlimit="10.0"><path d="M -1.5,10.680979980008077 l -0.5000000000000002,-0.8660254037844385 l -0.4999999999999999,0.8660254037844386 l 1.0,-1.1102230246251565e-16 Z" /></g></g><g transform="matrix(16.0,0.0,0.0,16.0,128.0,26.38635262262588)"><g stroke="rgb(0,0,0)" stroke-opacity="1.0" fill="rgb(0,0,0)" fill-opacity="1.0" stroke-width="1.0e-2" stroke-linecap="butt" stroke-linejoin="miter" font-size="1.0em" stroke-miterlimit="10.0"><path d="M -4.0,13.279056191361393 l -0.5000000000000002,-0.8660254037844385 l -0.4999999999999999,0.8660254037844386 l 1.0,-1.1102230246251565e-16 Z" /></g></g><g transform="matrix(16.0,0.0,0.0,16.0,128.0,26.38635262262588)"><g stroke="rgb(0,0,0)" stroke-opacity="1.0" fill="rgb(0,0,0)" fill-opacity="1.0" stroke-width="1.0e-2" stroke-linecap="butt" stroke-linejoin="miter" font-size="1.0em" stroke-miterlimit="10.0"><path d="M -5.0,13.279056191361393 l -0.5000000000000002,-0.8660254037844385 l -0.4999999999999999,0.8660254037844386 l 1.0,-1.1102230246251565e-16 Z" /></g></g><g transform="matrix(16.0,0.0,0.0,16.0,128.0,26.38635262262588)"><g stroke="rgb(0,0,0)" stroke-opacity="1.0" fill="rgb(0,0,0)" fill-opacity="1.0" stroke-width="1.0e-2" stroke-linecap="butt" stroke-linejoin="miter" font-size="1.0em" stroke-miterlimit="10.0"><path d="M -4.5,12.413030787576954 l -0.5000000000000002,-0.8660254037844385 l -0.4999999999999999,0.8660254037844386 l 1.0,-1.1102230246251565e-16 Z" /></g></g><g transform="matrix(16.0,0.0,0.0,16.0,128.0,26.38635262262588)"><g stroke="rgb(0,0,0)" stroke-opacity="1.0" fill="rgb(0,0,0)" fill-opacity="1.0" stroke-width="1.0e-2" stroke-linecap="butt" stroke-linejoin="miter" font-size="1.0em" stroke-miterlimit="10.0"><path d="M -6.0,13.279056191361393 l -0.5000000000000002,-0.8660254037844385 l -0.4999999999999999,0.8660254037844386 l 1.0,-1.1102230246251565e-16 Z" /></g></g><g transform="matrix(16.0,0.0,0.0,16.0,128.0,26.38635262262588)"><g stroke="rgb(0,0,0)" stroke-opacity="1.0" fill="rgb(0,0,0)" fill-opacity="1.0" stroke-width="1.0e-2" stroke-linecap="butt" stroke-linejoin="miter" font-size="1.0em" stroke-miterlimit="10.0"><path d="M -7.0,13.279056191361393 l -0.5000000000000002,-0.8660254037844385 l -0.4999999999999999,0.8660254037844386 l 1.0,-1.1102230246251565e-16 Z" /></g></g><g transform="matrix(16.0,0.0,0.0,16.0,128.0,26.38635262262588)"><g stroke="rgb(0,0,0)" stroke-opacity="1.0" fill="rgb(0,0,0)" fill-opacity="1.0" stroke-width="1.0e-2" stroke-linecap="butt" stroke-linejoin="miter" font-size="1.0em" stroke-miterlimit="10.0"><path d="M -6.5,12.413030787576954 l -0.5000000000000002,-0.8660254037844385 l -0.4999999999999999,0.8660254037844386 l 1.0,-1.1102230246251565e-16 Z" /></g></g><g transform="matrix(16.0,0.0,0.0,16.0,128.0,26.38635262262588)"><g stroke="rgb(0,0,0)" stroke-opacity="1.0" fill="rgb(0,0,0)" fill-opacity="1.0" stroke-width="1.0e-2" stroke-linecap="butt" stroke-linejoin="miter" font-size="1.0em" stroke-miterlimit="10.0"><path d="M -5.0,11.547005383792516 l -0.5000000000000002,-0.8660254037844385 l -0.4999999999999999,0.8660254037844386 l 1.0,-1.1102230246251565e-16 Z" /></g></g><g transform="matrix(16.0,0.0,0.0,16.0,128.0,26.38635262262588)"><g stroke="rgb(0,0,0)" stroke-opacity="1.0" fill="rgb(0,0,0)" fill-opacity="1.0" stroke-width="1.0e-2" stroke-linecap="butt" stroke-linejoin="miter" font-size="1.0em" stroke-miterlimit="10.0"><path d="M -6.0,11.547005383792516 l -0.5000000000000002,-0.8660254037844385 l -0.4999999999999999,0.8660254037844386 l 1.0,-1.1102230246251565e-16 Z" /></g></g><g transform="matrix(16.0,0.0,0.0,16.0,128.0,26.38635262262588)"><g stroke="rgb(0,0,0)" stroke-opacity="1.0" fill="rgb(0,0,0)" fill-opacity="1.0" stroke-width="1.0e-2" stroke-linecap="butt" stroke-linejoin="miter" font-size="1.0em" stroke-miterlimit="10.0"><path d="M -5.5,10.680979980008077 l -0.5000000000000002,-0.8660254037844385 l -0.4999999999999999,0.8660254037844386 l 1.0,-1.1102230246251565e-16 Z" /></g></g><g transform="matrix(16.0,0.0,0.0,16.0,128.0,26.38635262262588)"><g stroke="rgb(0,0,0)" stroke-opacity="1.0" fill="rgb(0,0,0)" fill-opacity="1.0" stroke-width="1.0e-2" stroke-linecap="butt" stroke-linejoin="miter" font-size="1.0em" stroke-miterlimit="10.0"><path d="M -2.0,9.814954576223638 l -0.5000000000000002,-0.8660254037844385 l -0.4999999999999999,0.8660254037844386 l 1.0,-1.1102230246251565e-16 Z" /></g></g><g transform="matrix(16.0,0.0,0.0,16.0,128.0,26.38635262262588)"><g stroke="rgb(0,0,0)" stroke-opacity="1.0" fill="rgb(0,0,0)" fill-opacity="1.0" stroke-width="1.0e-2" stroke-linecap="butt" stroke-linejoin="miter" font-size="1.0em" stroke-miterlimit="10.0"><path d="M -3.0,9.814954576223638 l -0.5000000000000002,-0.8660254037844385 l -0.4999999999999999,0.8660254037844386 l 1.0,-1.1102230246251565e-16 Z" /></g></g><g transform="matrix(16.0,0.0,0.0,16.0,128.0,26.38635262262588)"><g stroke="rgb(0,0,0)" stroke-opacity="1.0" fill="rgb(0,0,0)" fill-opacity="1.0" stroke-width="1.0e-2" stroke-linecap="butt" stroke-linejoin="miter" font-size="1.0em" stroke-miterlimit="10.0"><path d="M -2.5,8.948929172439199 l -0.5000000000000002,-0.8660254037844385 l -0.4999999999999999,0.8660254037844386 l 1.0,-1.1102230246251565e-16 Z" /></g></g><g transform="matrix(16.0,0.0,0.0,16.0,128.0,26.38635262262588)"><g stroke="rgb(0,0,0)" stroke-opacity="1.0" fill="rgb(0,0,0)" fill-opacity="1.0" stroke-width="1.0e-2" stroke-linecap="butt" stroke-linejoin="miter" font-size="1.0em" stroke-miterlimit="10.0"><path d="M -4.0,9.814954576223638 l -0.5000000000000002,-0.8660254037844385 l -0.4999999999999999,0.8660254037844386 l 1.0,-1.1102230246251565e-16 Z" /></g></g><g transform="matrix(16.0,0.0,0.0,16.0,128.0,26.38635262262588)"><g stroke="rgb(0,0,0)" stroke-opacity="1.0" fill="rgb(0,0,0)" fill-opacity="1.0" stroke-width="1.0e-2" stroke-linecap="butt" stroke-linejoin="miter" font-size="1.0em" stroke-miterlimit="10.0"><path d="M -5.0,9.814954576223638 l -0.5000000000000002,-0.8660254037844385 l -0.4999999999999999,0.8660254037844386 l 1.0,-1.1102230246251565e-16 Z" /></g></g><g transform="matrix(16.0,0.0,0.0,16.0,128.0,26.38635262262588)"><g stroke="rgb(0,0,0)" stroke-opacity="1.0" fill="rgb(0,0,0)" fill-opacity="1.0" stroke-width="1.0e-2" stroke-linecap="butt" stroke-linejoin="miter" font-size="1.0em" stroke-miterlimit="10.0"><path d="M -4.5,8.948929172439199 l -0.5000000000000002,-0.8660254037844385 l -0.4999999999999999,0.8660254037844386 l 1.0,-1.1102230246251565e-16 Z" /></g></g><g transform="matrix(16.0,0.0,0.0,16.0,128.0,26.38635262262588)"><g stroke="rgb(0,0,0)" stroke-opacity="1.0" fill="rgb(0,0,0)" fill-opacity="1.0" stroke-width="1.0e-2" stroke-linecap="butt" stroke-linejoin="miter" font-size="1.0em" stroke-miterlimit="10.0"><path d="M -3.0,8.08290376865476 l -0.5000000000000002,-0.8660254037844385 l -0.4999999999999999,0.8660254037844386 l 1.0,-1.1102230246251565e-16 Z" /></g></g><g transform="matrix(16.0,0.0,0.0,16.0,128.0,26.38635262262588)"><g stroke="rgb(0,0,0)" stroke-opacity="1.0" fill="rgb(0,0,0)" fill-opacity="1.0" stroke-width="1.0e-2" stroke-linecap="butt" stroke-linejoin="miter" font-size="1.0em" stroke-miterlimit="10.0"><path d="M -4.0,8.08290376865476 l -0.5000000000000002,-0.8660254037844385 l -0.4999999999999999,0.8660254037844386 l 1.0,-1.1102230246251565e-16 Z" /></g></g><g transform="matrix(16.0,0.0,0.0,16.0,128.0,26.38635262262588)"><g stroke="rgb(0,0,0)" stroke-opacity="1.0" fill="rgb(0,0,0)" fill-opacity="1.0" stroke-width="1.0e-2" stroke-linecap="butt" stroke-linejoin="miter" font-size="1.0em" stroke-miterlimit="10.0"><path d="M -3.5,7.216878364870322 l -0.5000000000000002,-0.8660254037844385 l -0.4999999999999999,0.8660254037844386 l 1.0,-1.1102230246251565e-16 Z" /></g></g><g transform="matrix(16.0,0.0,0.0,16.0,128.0,26.38635262262588)"><g stroke="rgb(0,0,0)" stroke-opacity="1.0" fill="rgb(0,0,0)" fill-opacity="1.0" stroke-width="1.0e-2" stroke-linecap="butt" stroke-linejoin="miter" font-size="1.0em" stroke-miterlimit="10.0"><path d="M 4.0,6.3508529610858835 l -0.5000000000000002,-0.8660254037844385 l -0.4999999999999999,0.8660254037844386 l 1.0,-1.1102230246251565e-16 Z" /></g></g><g transform="matrix(16.0,0.0,0.0,16.0,128.0,26.38635262262588)"><g stroke="rgb(0,0,0)" stroke-opacity="1.0" fill="rgb(0,0,0)" fill-opacity="1.0" stroke-width="1.0e-2" stroke-linecap="butt" stroke-linejoin="miter" font-size="1.0em" stroke-miterlimit="10.0"><path d="M 3.0,6.3508529610858835 l -0.5000000000000002,-0.8660254037844385 l -0.4999999999999999,0.8660254037844386 l 1.0,-1.1102230246251565e-16 Z" /></g></g><g transform="matrix(16.0,0.0,0.0,16.0,128.0,26.38635262262588)"><g stroke="rgb(0,0,0)" stroke-opacity="1.0" fill="rgb(0,0,0)" fill-opacity="1.0" stroke-width="1.0e-2" stroke-linecap="butt" stroke-linejoin="miter" font-size="1.0em" stroke-miterlimit="10.0"><path d="M 3.5,5.484827557301445 l -0.5000000000000002,-0.8660254037844385 l -0.4999999999999999,0.8660254037844386 l 1.0,-1.1102230246251565e-16 Z" /></g></g><g transform="matrix(16.0,0.0,0.0,16.0,128.0,26.38635262262588)"><g stroke="rgb(0,0,0)" stroke-opacity="1.0" fill="rgb(0,0,0)" fill-opacity="1.0" stroke-width="1.0e-2" stroke-linecap="butt" stroke-linejoin="miter" font-size="1.0em" stroke-miterlimit="10.0"><path d="M 2.0,6.3508529610858835 l -0.5000000000000002,-0.8660254037844385 l -0.4999999999999999,0.8660254037844386 l 1.0,-1.1102230246251565e-16 Z" /></g></g><g transform="matrix(16.0,0.0,0.0,16.0,128.0,26.38635262262588)"><g stroke="rgb(0,0,0)" stroke-opacity="1.0" fill="rgb(0,0,0)" fill-opacity="1.0" stroke-width="1.0e-2" stroke-linecap="butt" stroke-linejoin="miter" font-size="1.0em" stroke-miterlimit="10.0"><path d="M 1.0,6.3508529610858835 l -0.5000000000000002,-0.8660254037844385 l -0.4999999999999999,0.8660254037844386 l 1.0,-1.1102230246251565e-16 Z" /></g></g><g transform="matrix(16.0,0.0,0.0,16.0,128.0,26.38635262262588)"><g stroke="rgb(0,0,0)" stroke-opacity="1.0" fill="rgb(0,0,0)" fill-opacity="1.0" stroke-width="1.0e-2" stroke-linecap="butt" stroke-linejoin="miter" font-size="1.0em" stroke-miterlimit="10.0"><path d="M 1.5,5.484827557301445 l -0.5000000000000002,-0.8660254037844385 l -0.4999999999999999,0.8660254037844386 l 1.0,-1.1102230246251565e-16 Z" /></g></g><g transform="matrix(16.0,0.0,0.0,16.0,128.0,26.38635262262588)"><g stroke="rgb(0,0,0)" stroke-opacity="1.0" fill="rgb(0,0,0)" fill-opacity="1.0" stroke-width="1.0e-2" stroke-linecap="butt" stroke-linejoin="miter" font-size="1.0em" stroke-miterlimit="10.0"><path d="M 3.0,4.618802153517006 l -0.5000000000000002,-0.8660254037844385 l -0.4999999999999999,0.8660254037844386 l 1.0,-1.1102230246251565e-16 Z" /></g></g><g transform="matrix(16.0,0.0,0.0,16.0,128.0,26.38635262262588)"><g stroke="rgb(0,0,0)" stroke-opacity="1.0" fill="rgb(0,0,0)" fill-opacity="1.0" stroke-width="1.0e-2" stroke-linecap="butt" stroke-linejoin="miter" font-size="1.0em" stroke-miterlimit="10.0"><path d="M 2.0,4.618802153517006 l -0.5000000000000002,-0.8660254037844385 l -0.4999999999999999,0.8660254037844386 l 1.0,-1.1102230246251565e-16 Z" /></g></g><g transform="matrix(16.0,0.0,0.0,16.0,128.0,26.38635262262588)"><g stroke="rgb(0,0,0)" stroke-opacity="1.0" fill="rgb(0,0,0)" fill-opacity="1.0" stroke-width="1.0e-2" stroke-linecap="butt" stroke-linejoin="miter" font-size="1.0em" stroke-miterlimit="10.0"><path d="M 2.5,3.752776749732567 l -0.5000000000000002,-0.8660254037844385 l -0.4999999999999999,0.8660254037844386 l 1.0,-1.1102230246251565e-16 Z" /></g></g><g transform="matrix(16.0,0.0,0.0,16.0,128.0,26.38635262262588)"><g stroke="rgb(0,0,0)" stroke-opacity="1.0" fill="rgb(0,0,0)" fill-opacity="1.0" stroke-width="1.0e-2" stroke-linecap="butt" stroke-linejoin="miter" font-size="1.0em" stroke-miterlimit="10.0"><path d="M 0.0,6.3508529610858835 l -0.5000000000000002,-0.8660254037844385 l -0.4999999999999999,0.8660254037844386 l 1.0,-1.1102230246251565e-16 Z" /></g></g><g transform="matrix(16.0,0.0,0.0,16.0,128.0,26.38635262262588)"><g stroke="rgb(0,0,0)" stroke-opacity="1.0" fill="rgb(0,0,0)" fill-opacity="1.0" stroke-width="1.0e-2" stroke-linecap="butt" stroke-linejoin="miter" font-size="1.0em" stroke-miterlimit="10.0"><path d="M -1.0,6.3508529610858835 l -0.5000000000000002,-0.8660254037844385 l -0.4999999999999999,0.8660254037844386 l 1.0,-1.1102230246251565e-16 Z" /></g></g><g transform="matrix(16.0,0.0,0.0,16.0,128.0,26.38635262262588)"><g stroke="rgb(0,0,0)" stroke-opacity="1.0" fill="rgb(0,0,0)" fill-opacity="1.0" stroke-width="1.0e-2" stroke-linecap="butt" stroke-linejoin="miter" font-size="1.0em" stroke-miterlimit="10.0"><path d="M -0.5,5.484827557301445 l -0.5000000000000002,-0.8660254037844385 l -0.4999999999999999,0.8660254037844386 l 1.0,-1.1102230246251565e-16 Z" /></g></g><g transform="matrix(16.0,0.0,0.0,16.0,128.0,26.38635262262588)"><g stroke="rgb(0,0,0)" stroke-opacity="1.0" fill="rgb(0,0,0)" fill-opacity="1.0" stroke-width="1.0e-2" stroke-linecap="butt" stroke-linejoin="miter" font-size="1.0em" stroke-miterlimit="10.0"><path d="M -2.0,6.3508529610858835 l -0.5000000000000002,-0.8660254037844385 l -0.4999999999999999,0.8660254037844386 l 1.0,-1.1102230246251565e-16 Z" /></g></g><g transform="matrix(16.0,0.0,0.0,16.0,128.0,26.38635262262588)"><g stroke="rgb(0,0,0)" stroke-opacity="1.0" fill="rgb(0,0,0)" fill-opacity="1.0" stroke-width="1.0e-2" stroke-linecap="butt" stroke-linejoin="miter" font-size="1.0em" stroke-miterlimit="10.0"><path d="M -3.0,6.3508529610858835 l -0.5000000000000002,-0.8660254037844385 l -0.4999999999999999,0.8660254037844386 l 1.0,-1.1102230246251565e-16 Z" /></g></g><g transform="matrix(16.0,0.0,0.0,16.0,128.0,26.38635262262588)"><g stroke="rgb(0,0,0)" stroke-opacity="1.0" fill="rgb(0,0,0)" fill-opacity="1.0" stroke-width="1.0e-2" stroke-linecap="butt" stroke-linejoin="miter" font-size="1.0em" stroke-miterlimit="10.0"><path d="M -2.5,5.484827557301445 l -0.5000000000000002,-0.8660254037844385 l -0.4999999999999999,0.8660254037844386 l 1.0,-1.1102230246251565e-16 Z" /></g></g><g transform="matrix(16.0,0.0,0.0,16.0,128.0,26.38635262262588)"><g stroke="rgb(0,0,0)" stroke-opacity="1.0" fill="rgb(0,0,0)" fill-opacity="1.0" stroke-width="1.0e-2" stroke-linecap="butt" stroke-linejoin="miter" font-size="1.0em" stroke-miterlimit="10.0"><path d="M -1.0,4.618802153517006 l -0.5000000000000002,-0.8660254037844385 l -0.4999999999999999,0.8660254037844386 l 1.0,-1.1102230246251565e-16 Z" /></g></g><g transform="matrix(16.0,0.0,0.0,16.0,128.0,26.38635262262588)"><g stroke="rgb(0,0,0)" stroke-opacity="1.0" fill="rgb(0,0,0)" fill-opacity="1.0" stroke-width="1.0e-2" stroke-linecap="butt" stroke-linejoin="miter" font-size="1.0em" stroke-miterlimit="10.0"><path d="M -2.0,4.618802153517006 l -0.5000000000000002,-0.8660254037844385 l -0.4999999999999999,0.8660254037844386 l 1.0,-1.1102230246251565e-16 Z" /></g></g><g transform="matrix(16.0,0.0,0.0,16.0,128.0,26.38635262262588)"><g stroke="rgb(0,0,0)" stroke-opacity="1.0" fill="rgb(0,0,0)" fill-opacity="1.0" stroke-width="1.0e-2" stroke-linecap="butt" stroke-linejoin="miter" font-size="1.0em" stroke-miterlimit="10.0"><path d="M -1.5,3.752776749732567 l -0.5000000000000002,-0.8660254037844385 l -0.4999999999999999,0.8660254037844386 l 1.0,-1.1102230246251565e-16 Z" /></g></g><g transform="matrix(16.0,0.0,0.0,16.0,128.0,26.38635262262588)"><g stroke="rgb(0,0,0)" stroke-opacity="1.0" fill="rgb(0,0,0)" fill-opacity="1.0" stroke-width="1.0e-2" stroke-linecap="butt" stroke-linejoin="miter" font-size="1.0em" stroke-miterlimit="10.0"><path d="M 2.0,2.8867513459481287 l -0.5000000000000002,-0.8660254037844385 l -0.4999999999999999,0.8660254037844386 l 1.0,-1.1102230246251565e-16 Z" /></g></g><g transform="matrix(16.0,0.0,0.0,16.0,128.0,26.38635262262588)"><g stroke="rgb(0,0,0)" stroke-opacity="1.0" fill="rgb(0,0,0)" fill-opacity="1.0" stroke-width="1.0e-2" stroke-linecap="butt" stroke-linejoin="miter" font-size="1.0em" stroke-miterlimit="10.0"><path d="M 1.0,2.8867513459481287 l -0.5000000000000002,-0.8660254037844385 l -0.4999999999999999,0.8660254037844386 l 1.0,-1.1102230246251565e-16 Z" /></g></g><g transform="matrix(16.0,0.0,0.0,16.0,128.0,26.38635262262588)"><g stroke="rgb(0,0,0)" stroke-opacity="1.0" fill="rgb(0,0,0)" fill-opacity="1.0" stroke-width="1.0e-2" stroke-linecap="butt" stroke-linejoin="miter" font-size="1.0em" stroke-miterlimit="10.0"><path d="M 1.5,2.02072594216369 l -0.5000000000000002,-0.8660254037844385 l -0.4999999999999999,0.8660254037844386 l 1.0,-1.1102230246251565e-16 Z" /></g></g><g transform="matrix(16.0,0.0,0.0,16.0,128.0,26.38635262262588)"><g stroke="rgb(0,0,0)" stroke-opacity="1.0" fill="rgb(0,0,0)" fill-opacity="1.0" stroke-width="1.0e-2" stroke-linecap="butt" stroke-linejoin="miter" font-size="1.0em" stroke-miterlimit="10.0"><path d="M 0.0,2.8867513459481287 l -0.5000000000000002,-0.8660254037844385 l -0.4999999999999999,0.8660254037844386 l 1.0,-1.1102230246251565e-16 Z" /></g></g><g transform="matrix(16.0,0.0,0.0,16.0,128.0,26.38635262262588)"><g stroke="rgb(0,0,0)" stroke-opacity="1.0" fill="rgb(0,0,0)" fill-opacity="1.0" stroke-width="1.0e-2" stroke-linecap="butt" stroke-linejoin="miter" font-size="1.0em" stroke-miterlimit="10.0"><path d="M -1.0,2.8867513459481287 l -0.5000000000000002,-0.8660254037844385 l -0.4999999999999999,0.8660254037844386 l 1.0,-1.1102230246251565e-16 Z" /></g></g><g transform="matrix(16.0,0.0,0.0,16.0,128.0,26.38635262262588)"><g stroke="rgb(0,0,0)" stroke-opacity="1.0" fill="rgb(0,0,0)" fill-opacity="1.0" stroke-width="1.0e-2" stroke-linecap="butt" stroke-linejoin="miter" font-size="1.0em" stroke-miterlimit="10.0"><path d="M -0.5,2.02072594216369 l -0.5000000000000002,-0.8660254037844385 l -0.4999999999999999,0.8660254037844386 l 1.0,-1.1102230246251565e-16 Z" /></g></g><g transform="matrix(16.0,0.0,0.0,16.0,128.0,26.38635262262588)"><g stroke="rgb(0,0,0)" stroke-opacity="1.0" fill="rgb(0,0,0)" fill-opacity="1.0" stroke-width="1.0e-2" stroke-linecap="butt" stroke-linejoin="miter" font-size="1.0em" stroke-miterlimit="10.0"><path d="M 1.0,1.1547005383792515 l -0.5000000000000002,-0.8660254037844385 l -0.4999999999999999,0.8660254037844386 l 1.0,-1.1102230246251565e-16 Z" /></g></g><g transform="matrix(16.0,0.0,0.0,16.0,128.0,26.38635262262588)"><g stroke="rgb(0,0,0)" stroke-opacity="1.0" fill="rgb(0,0,0)" fill-opacity="1.0" stroke-width="1.0e-2" stroke-linecap="butt" stroke-linejoin="miter" font-size="1.0em" stroke-miterlimit="10.0"><path d="M 0.0,1.1547005383792515 l -0.5000000000000002,-0.8660254037844385 l -0.4999999999999999,0.8660254037844386 l 1.0,-1.1102230246251565e-16 Z" /></g></g><g transform="matrix(16.0,0.0,0.0,16.0,128.0,26.38635262262588)"><g stroke="rgb(0,0,0)" stroke-opacity="1.0" fill="rgb(0,0,0)" fill-opacity="1.0" stroke-width="1.0e-2" stroke-linecap="butt" stroke-linejoin="miter" font-size="1.0em" stroke-miterlimit="10.0"><path d="M 0.5,0.28867513459481275 l -0.5000000000000002,-0.8660254037844385 l -0.4999999999999999,0.8660254037844386 l 1.0,-1.1102230246251565e-16 Z" /></g></g></g></svg>